<?xml version="1.0" encoding="UTF-8"?>
<!-- (c) Carrd Inc. All rights reserved. All logos and trademarks are property of their respective owners. -->
<svg xmlns="http://www.w3.org/2000/svg" version="1.1" xmlns:xlink="http://www.w3.org/1999/xlink" viewBox="0 0 40 40" display="none" width="0" height="0">
	<symbol id="arrow-right-light" viewBox="0 0 40 40"><path d="M34.1,19.9c0,0.3-0.1,0.3-0.1,0.4L21.3,33.1c-0.1,0.1-0.1,0.1-0.4,0.1c-0.3,0-0.3-0.1-0.4-0.1L19,31.6 c-0.1-0.1-0.1-0.1-0.1-0.4s0.1-0.3,0.1-0.4l9.2-9.2H5.8c-0.1,0-0.2,0-0.2,0c0,0,0,0,0,0c-0.1-0.1-0.1-0.2-0.1-0.4v-2.5 c0-0.2,0.1-0.4,0.1-0.5c0,0,0.1,0,0.2,0h22.4L19,9c-0.1-0.1-0.1-0.1-0.1-0.4c0-0.3,0.1-0.3,0.1-0.4l1.5-1.5c0.1-0.1,0.1-0.1,0.4-0.1 c0.3,0,0.3,0.1,0.4,0.1L34,19.5C34,19.6,34.1,19.6,34.1,19.9z"/></symbol>
	<symbol id="x" viewBox="0 0 40 40"><path d="M30.1,4h5.4L23.7,17.6L37.6,36H26.7l-8.5-11.2L8.5,36H3.1l12.6-14.5L2.4,4h11.1l7.7,10.2L30.1,4z M28.2,32.8h3L11.9,7.1H8.7 L28.2,32.8z"/></symbol>
	<symbol id="linkedin" viewBox="0 0 40 40"><path d="M12.1,13.8v19.1H5.7V13.8C5.7,13.8,12.1,13.8,12.1,13.8z M12.5,7.9c0,0.9-0.3,1.7-1,2.4c-0.7,0.6-1.5,0.9-2.6,0.9h0 c-1.1,0-1.9-0.3-2.5-0.9c-0.6-0.6-1-1.4-1-2.4c0-1,0.3-1.7,1-2.4S7.9,4.6,9,4.6s1.9,0.3,2.6,0.9S12.5,6.9,12.5,7.9z M35,22v11h-6.4 V22.7c0-1.4-0.3-2.4-0.8-3.2c-0.5-0.8-1.3-1.1-2.4-1.1c-0.8,0-1.5,0.2-2,0.7c-0.5,0.4-1,1-1.2,1.7c-0.1,0.4-0.2,0.9-0.2,1.6v10.7 h-6.4c0-5.1,0-9.3,0-12.5s0-5.1,0-5.7l0-0.9H22v2.8h0c0.3-0.4,0.5-0.8,0.8-1.1c0.3-0.3,0.6-0.6,1.1-1c0.5-0.4,1-0.6,1.7-0.8 c0.7-0.2,1.4-0.3,2.2-0.3c2.2,0,4,0.7,5.3,2.2C34.4,17,35,19.1,35,22L35,22z"/></symbol>
	<symbol id="github" viewBox="0 0 40 40"><path d="M36,20.3c0,3.5-1,6.6-3.1,9.4c-2,2.8-4.7,4.7-7.9,5.8c-0.4,0.1-0.6,0-0.8-0.1c-0.2-0.2-0.3-0.4-0.3-0.6v-4.4 c0-1.3-0.4-2.3-1.1-3c0.8-0.1,1.5-0.2,2.1-0.4c0.6-0.2,1.3-0.4,2-0.8c0.7-0.4,1.2-0.8,1.7-1.4c0.5-0.5,0.8-1.3,1.1-2.2 s0.4-2,0.4-3.1c0-1.7-0.5-3.1-1.6-4.3c0.5-1.3,0.5-2.7-0.2-4.2c-0.4-0.1-1,0-1.7,0.2c-0.7,0.3-1.4,0.6-1.9,0.9L24,12.5 c-1.3-0.4-2.6-0.5-4-0.5s-2.7,0.2-4,0.5c-0.2-0.2-0.5-0.3-0.9-0.6c-0.4-0.2-0.9-0.5-1.7-0.8c-0.8-0.3-1.4-0.4-1.8-0.3 c-0.6,1.6-0.7,3-0.1,4.2c-1.1,1.2-1.6,2.6-1.6,4.3c0,1.2,0.1,2.2,0.4,3.1s0.6,1.6,1.1,2.2s1,1,1.7,1.4c0.7,0.4,1.3,0.6,2,0.8 c0.6,0.2,1.3,0.3,2.1,0.4c-0.6,0.5-0.9,1.2-1,2.1c-0.3,0.1-0.6,0.2-0.9,0.3c-0.3,0.1-0.7,0.1-1.2,0.1c-0.5,0-0.9-0.1-1.4-0.4 c-0.5-0.3-0.8-0.7-1.2-1.3c-0.3-0.4-0.6-0.8-1-1.1c-0.4-0.3-0.8-0.4-1-0.5L9,26.5c-0.3,0-0.5,0-0.6,0.1c-0.1,0.1-0.1,0.1-0.1,0.2 c0,0.1,0.1,0.2,0.2,0.3c0.1,0.1,0.2,0.2,0.3,0.2l0.1,0.1c0.3,0.1,0.6,0.4,0.9,0.8s0.5,0.7,0.7,1.1l0.2,0.5c0.2,0.5,0.5,1,0.9,1.3 c0.4,0.3,0.9,0.5,1.4,0.6c0.5,0.1,1,0.1,1.4,0.1c0.5,0,0.9,0,1.2-0.1l0.5-0.1c0,0.5,0,1.1,0,1.9c0,0.7,0,1.1,0,1.1 c0,0.2-0.1,0.5-0.3,0.6c-0.2,0.2-0.5,0.2-0.8,0.1c-3.2-1.1-5.8-3-7.9-5.8S4,23.8,4,20.3c0-2.9,0.7-5.6,2.1-8S9.5,7.8,12,6.4 s5.1-2.1,8-2.1s5.6,0.7,8,2.1s4.4,3.4,5.8,5.8S36,17.4,36,20.3L36,20.3z"/></symbol>
	<symbol id="arrow-down-light" viewBox="0 0 40 40"><path d="M19.8,34.2c-0.3,0-0.3-0.1-0.4-0.1L6.6,21.4c-0.1-0.1-0.1-0.1-0.1-0.4c0-0.3,0.1-0.3,0.1-0.4l1.5-1.5 C8.2,19.1,8.2,19,8.5,19s0.3,0.1,0.4,0.1l9.2,9.2V5.9c0-0.1,0-0.2,0-0.2c0,0,0,0,0,0c0.1-0.1,0.2-0.1,0.4-0.1H21 c0.2,0,0.4,0.1,0.5,0.1c0,0,0,0.1,0,0.2v22.4l9.2-9.2c0.1-0.1,0.1-0.1,0.4-0.1c0.3,0,0.3,0.1,0.4,0.1l1.5,1.5 c0.1,0.1,0.1,0.1,0.1,0.4c0,0.3-0.1,0.3-0.1,0.4L20.2,34.1C20.1,34.1,20.1,34.2,19.8,34.2z"/></symbol>
	<symbol id="arrow-down" viewBox="0 0 40 40"><path d="M18.5,5.6H21c0.7,0,1.3,0.2,1.8,0.6c0.5,0.4,0.7,1,0.7,1.7v13.8l5.8-5.8c0.5-0.5,1.1-0.7,1.8-0.7c0.7,0,1.3,0.2,1.8,0.7 l1.5,1.5c0.5,0.5,0.7,1.1,0.7,1.8c0,0.7-0.2,1.3-0.7,1.8L21.6,33.7c-0.5,0.5-1.1,0.7-1.8,0.7c-0.7,0-1.3-0.2-1.8-0.7L5.2,21 c-0.5-0.5-0.7-1.1-0.7-1.8s0.2-1.3,0.7-1.8l1.5-1.5c0.5-0.5,1.1-0.7,1.8-0.7c0.7,0,1.3,0.2,1.8,0.7l5.8,5.8V7.9 c0-0.7,0.2-1.2,0.7-1.7C17.3,5.8,17.8,5.6,18.5,5.6z" /></symbol>
</svg>
